<svg xmlns="http://www.w3.org/2000/svg" viewBox="0 0 640 400" width="640" height="400" role="img">
  <defs>
    <radialGradient id="g" cx="0.5" cy="0" r="0.9">
      <stop offset="0" stop-color="#25445c"/>
      <stop offset="0.78" stop-color="#0d1510"/>
      <stop offset="1" stop-color="#0d1510"/>
    </radialGradient>
    <clipPath id="r"><rect width="640" height="400" rx="14"/></clipPath>
  </defs>
  <g clip-path="url(#r)">
    <rect width="640" height="400" fill="url(#g)"/>
    <svg x="0" y="0" width="640" height="400" viewBox="0 0 320 200" preserveAspectRatio="xMidYMid slice">
              <g fill="none" stroke="#f3ecd6" stroke-opacity=".28" stroke-width="1.6" stroke-dasharray="2 5" stroke-linecap="round">
                <path d="M84 40 236 118M84 80 236 158M84 120 236 40M84 160 236 80"/>
              </g>
              <g stroke="#4f95e8" stroke-width="3.5" stroke-linecap="round">
                <path d="M90 40h140M90 80h140M90 120h140M90 160h140"/>
              </g>
              <g fill="#4f95e8" stroke="#0c1a2e" stroke-width="1.8" stroke-linejoin="round">
                <g id="olh-home"><path d="M56 40 70 27 84 40Z"/><rect x="59" y="40" width="22" height="15" fill="#f3ecd6"/></g>
                <use href="#olh-home" y="40"/><use href="#olh-home" y="80"/><use href="#olh-home" y="120"/>
              </g>
              <g fill="#eb6834" stroke="#2e1206" stroke-width="1.8" stroke-linejoin="round">
                <g id="olh-work"><rect x="236" y="26" width="28" height="28" rx="5"/><g fill="none" stroke="#2e1206" stroke-width="2.2" stroke-linecap="round"><circle cx="250" cy="40" r="4.6"/><path d="M250 31.5v3M250 45.5v3M241.5 40h3M255.5 40h3M244 34l2.1 2.1M253.9 43.9 256 46M244 46l2.1-2.1M253.9 36.1 256 34"/></g></g>
                <use href="#olh-work" y="40"/><use href="#olh-work" y="80"/><use href="#olh-work" y="120"/>
              </g>
            </svg>
    <rect y="395" width="640" height="5" fill="#4f95e8"/>
  </g>
</svg>
